<svg xmlns="http://www.w3.org/2000/svg" width="1024" height="1024" viewBox="0 0 1024 1024" role="img" aria-label="Fusion icon">
  <defs>
    <filter id="shadow" x="-20%" y="-20%" width="140%" height="140%">
      <feDropShadow dx="0" dy="14" stdDeviation="20" flood-color="#000000" flood-opacity="0.18"/>
    </filter>
  </defs>

  <rect width="1024" height="1024" fill="#dcdcdc"/>

  <rect x="104" y="68" width="820" height="856" rx="182" fill="#eeeeee" filter="url(#shadow)"/>

  <path d="M198 241 L300 178 L300 647 L198 709 Z" fill="#f69445"/>

  <rect x="300" y="178" width="479" height="469" rx="34" fill="#ff7300"/>

  <path d="M779 284 H823 V844 H282 Q252 844 252 814 V647 H779 Z" fill="#a24700"/>

  <path d="M468 284 H634 V331 H533 V392 H619 V439 H533 V575 H468 Z" fill="#f1f1f1"/>

  <path d="M417 693 H517 V733 H469 V773 H511 V812 H469 V880 H417 Z" fill="#f1f1f1"/>
  <path d="M492 693 H544 V812 C544 830 557 842 575 842 C593 842 606 830 606 812 V693 H658 V812
           C658 860 621 891 575 891 C529 891 492 860 492 812 Z" fill="#f1f1f1"/>
  <path d="M664 823 H717 C720 838 731 845 748 845 C765 845 775 838 775 826 C775 813 760 809 738 804
           C706 798 670 788 670 744 C670 708 699 691 744 691 C790 691 817 713 821 747 H769
           C766 733 757 727 742 727 C727 727 721 733 721 743 C721 756 738 760 760 765
           C792 772 827 783 827 824 C827 864 795 891 747 891 C699 891 668 866 664 823 Z" fill="#f1f1f1"/>
</svg>
